<?xml version="1.0" standalone="no"?>
<svg xmlns:xlink="http://www.w3.org/1999/xlink" id="wave" style="transform:rotate(180deg); transition: 0.3s" viewBox="0 0 1440 490" version="1.1" xmlns="http://www.w3.org/2000/svg"><defs><linearGradient id="sw-gradient-0" x1="0" x2="0" y1="1" y2="0"><stop stop-color="rgba(176, 102, 254, 1)" offset="0%"/><stop stop-color="rgba(99, 242, 255, 1)" offset="100%"/></linearGradient></defs><path style="transform:translate(0, 0px); opacity:1" fill="url(#sw-gradient-0)" d="M0,0L120,32.7C240,65,480,131,720,138.8C960,147,1200,98,1440,81.7C1680,65,1920,82,2160,89.8C2400,98,2640,98,2880,147C3120,196,3360,294,3600,334.8C3840,376,4080,359,4320,318.5C4560,278,4800,212,5040,204.2C5280,196,5520,245,5760,269.5C6000,294,6240,294,6480,310.3C6720,327,6960,359,7200,359.3C7440,359,7680,327,7920,261.3C8160,196,8400,98,8640,65.3C8880,33,9120,65,9360,98C9600,131,9840,163,10080,196C10320,229,10560,261,10800,236.8C11040,212,11280,131,11520,89.8C11760,49,12000,49,12240,57.2C12480,65,12720,82,12960,138.8C13200,196,13440,294,13680,343C13920,392,14160,392,14400,351.2C14640,310,14880,229,15120,228.7C15360,229,15600,310,15840,302.2C16080,294,16320,196,16560,138.8C16800,82,17040,65,17160,57.2L17280,49L17280,490L17160,490C17040,490,16800,490,16560,490C16320,490,16080,490,15840,490C15600,490,15360,490,15120,490C14880,490,14640,490,14400,490C14160,490,13920,490,13680,490C13440,490,13200,490,12960,490C12720,490,12480,490,12240,490C12000,490,11760,490,11520,490C11280,490,11040,490,10800,490C10560,490,10320,490,10080,490C9840,490,9600,490,9360,490C9120,490,8880,490,8640,490C8400,490,8160,490,7920,490C7680,490,7440,490,7200,490C6960,490,6720,490,6480,490C6240,490,6000,490,5760,490C5520,490,5280,490,5040,490C4800,490,4560,490,4320,490C4080,490,3840,490,3600,490C3360,490,3120,490,2880,490C2640,490,2400,490,2160,490C1920,490,1680,490,1440,490C1200,490,960,490,720,490C480,490,240,490,120,490L0,490Z"/></svg>