<svg id="visual" viewBox="0 0 1366 768" width="1366" height="768" xmlns="http://www.w3.org/2000/svg" xmlns:xlink="http://www.w3.org/1999/xlink" version="1.1"><rect x="0" y="0" width="1366" height="768" fill="#ffffff"></rect><defs><linearGradient id="grad1_0" x1="43.8%" y1="0%" x2="100%" y2="100%"><stop offset="14.427083333333334%" stop-color="#ffffff" stop-opacity="1"></stop><stop offset="85.57291666666667%" stop-color="#ffffff" stop-opacity="1"></stop></linearGradient></defs><defs><linearGradient id="grad2_0" x1="0%" y1="0%" x2="56.2%" y2="100%"><stop offset="14.427083333333334%" stop-color="#ffffff" stop-opacity="1"></stop><stop offset="85.57291666666667%" stop-color="#ffffff" stop-opacity="1"></stop></linearGradient></defs><g transform="translate(1366, 0)"><path d="M0 499.2C-80.4 475 -160.8 450.8 -238 412.2C-315.2 373.7 -389.3 320.7 -432.3 249.6C-475.3 178.5 -487.3 89.2 -499.2 0L0 0Z" fill="#00BFA6"></path></g><g transform="translate(0, 768)"><path d="M0 -499.2C98 -492.3 196.1 -485.5 249.6 -432.3C303.1 -379.2 312.2 -279.8 346.4 -200C380.6 -120.2 439.9 -60.1 499.2 0L0 0Z" fill="#00BFA6"></path></g></svg>